<svg xmlns="http://www.w3.org/2000/svg" viewBox="0 0 1200 630" role="img" aria-label="Urdushbek va Durdona Fotiha to‘yi taklifnomasi">
  <defs>
    <linearGradient id="bg" x1="0" y1="0" x2="1" y2="1">
      <stop offset="0" stop-color="#fffdf8"/>
      <stop offset=".55" stop-color="#f3eadc"/>
      <stop offset="1" stop-color="#ded2c1"/>
    </linearGradient>
    <linearGradient id="gold" x1="0" x2="1">
      <stop offset="0" stop-color="#88662e"/>
      <stop offset=".5" stop-color="#d4b36b"/>
      <stop offset="1" stop-color="#8d6b35"/>
    </linearGradient>
  </defs>
  <rect width="1200" height="630" fill="url(#bg)"/>
  <rect x="28" y="28" width="1144" height="574" fill="none" stroke="#bd974e" stroke-width="2"/>
  <rect x="44" y="44" width="1112" height="542" fill="none" stroke="#d8bd82" stroke-width="1" opacity=".7"/>
  <g fill="none" stroke="#91a087" stroke-width="4" opacity=".42" stroke-linecap="round">
    <path d="M0 560C110 510 105 365 235 300c57-28 88-83 102-152"/>
    <path d="M1200 560c-110-50-105-195-235-260-57-28-88-83-102-152"/>
    <path d="M86 512c66-10 109-43 138-98M138 421c-54-4-95-27-126-69M1114 512c-66-10-109-43-138-98M1062 421c54-4 95-27 126-69"/>
  </g>
  <g fill="#d7aeb8" opacity=".58">
    <circle cx="89" cy="513" r="13"/><circle cx="139" cy="421" r="11"/>
    <circle cx="1111" cy="513" r="13"/><circle cx="1061" cy="421" r="11"/>
  </g>
  <circle cx="600" cy="152" r="76" fill="#fffaf0" stroke="#bd974e" stroke-width="3"/>
  <circle cx="600" cy="152" r="64" fill="none" stroke="#d9bf86"/>
  <text x="600" y="164" text-anchor="middle" font-family="Georgia,serif" font-weight="700" font-size="34" fill="#8b6833">U &amp; D</text>
  <text x="600" y="266" text-anchor="middle" font-family="Georgia,serif" font-size="18" letter-spacing="6" fill="#8e744f">FOTIHA TO‘YIGA TAKLIFNOMA</text>
  <text x="600" y="365" text-anchor="middle" font-family="Georgia,serif" font-weight="700" font-size="70" fill="url(#gold)">URDUSHBEK &amp; DURDONA</text>
  <line x1="370" y1="414" x2="830" y2="414" stroke="#bd974e" opacity=".65"/>
  <circle cx="600" cy="414" r="5" fill="#bd974e"/>
  <text x="600" y="480" text-anchor="middle" font-family="Georgia,serif" font-weight="700" font-size="27" letter-spacing="5" fill="#7b6655">02.08.2026  •  11:00</text>
  <text x="600" y="530" text-anchor="middle" font-family="Georgia,serif" font-style="italic" font-size="24" fill="#916775">“BEK” TO‘Y VA TANTANALAR MASKANI • JIZZAX</text>
</svg>
