<svg xmlns="http://www.w3.org/2000/svg" viewBox="0 0 1080 1920" role="img" aria-label="Pearl Garden decorative background">
  <defs>
    <linearGradient id="bg" x1="0" y1="0" x2="0" y2="1">
      <stop offset="0" stop-color="#fffdf8"/>
      <stop offset="0.52" stop-color="#f5ecdf"/>
      <stop offset="1" stop-color="#e8dccb"/>
    </linearGradient>
    <radialGradient id="sun" cx="50%" cy="18%" r="58%">
      <stop offset="0" stop-color="#fff9dc" stop-opacity=".96"/>
      <stop offset=".42" stop-color="#f7e8bf" stop-opacity=".44"/>
      <stop offset="1" stop-color="#f7e8bf" stop-opacity="0"/>
    </radialGradient>
    <linearGradient id="gold" x1="0" y1="0" x2="1" y2="1">
      <stop offset="0" stop-color="#9d762f"/>
      <stop offset=".5" stop-color="#e4c77f"/>
      <stop offset="1" stop-color="#a98039"/>
    </linearGradient>
    <filter id="blur"><feGaussianBlur stdDeviation="24"/></filter>
    <filter id="soft"><feGaussianBlur stdDeviation="7"/></filter>
  </defs>
  <rect width="1080" height="1920" fill="url(#bg)"/>
  <rect width="1080" height="1200" fill="url(#sun)"/>
  <g opacity=".16" fill="none" stroke="url(#gold)" stroke-width="4">
    <path d="M168 1920V570c0-230 166-414 372-414s372 184 372 414v1350"/>
    <path d="M225 1920V595c0-197 141-356 315-356s315 159 315 356v1325"/>
    <path d="M298 1920V620c0-151 109-274 242-274s242 123 242 274v1300"/>
  </g>
  <g opacity=".22" fill="#ffffff">
    <ellipse cx="180" cy="310" rx="135" ry="360" transform="rotate(-18 180 310)" filter="url(#blur)"/>
    <ellipse cx="905" cy="340" rx="150" ry="390" transform="rotate(19 905 340)" filter="url(#blur)"/>
  </g>
  <g fill="none" stroke="#91a087" stroke-width="5" stroke-linecap="round" opacity=".34">
    <path d="M-40 1640C105 1460 88 1210 252 1034C318 963 373 902 403 788"/>
    <path d="M1120 1602C956 1452 983 1190 816 1028C747 962 696 887 673 780"/>
    <path d="M94 1510c66-19 102-68 128-130M138 1390c-59-9-103-42-132-96M216 1275c62-26 91-74 105-132M260 1138c-53-4-96-34-126-82"/>
    <path d="M986 1490c-68-22-105-70-130-132M940 1367c58-8 104-40 136-94M865 1250c-62-24-94-71-110-128M822 1110c53-5 96-34 126-81"/>
  </g>
  <g fill="#d9b7bf" opacity=".42">
    <circle cx="106" cy="1515" r="19"/><circle cx="224" cy="1280" r="16"/><circle cx="278" cy="1138" r="14"/>
    <circle cx="977" cy="1492" r="19"/><circle cx="858" cy="1252" r="16"/><circle cx="807" cy="1110" r="14"/>
  </g>
  <g opacity=".38" fill="#e0bd72" filter="url(#soft)">
    <circle cx="540" cy="214" r="8"/><circle cx="478" cy="302" r="5"/><circle cx="622" cy="344" r="6"/>
    <circle cx="432" cy="462" r="5"/><circle cx="696" cy="512" r="7"/><circle cx="374" cy="626" r="4"/>
  </g>
  <path d="M0 1780C235 1688 379 1760 540 1828C703 1759 849 1689 1080 1780V1920H0Z" fill="#ddd0bd" opacity=".36"/>
</svg>
