<svg xmlns="http://www.w3.org/2000/svg" viewBox="0 0 1080 1920">
<defs>
<linearGradient id="bg" x1="0" y1="0" x2="0" y2="1"><stop stop-color="#260308"/><stop offset=".52" stop-color="#170205"/><stop offset="1" stop-color="#080001"/></linearGradient>
<linearGradient id="curtain" x1="0" x2="1"><stop stop-color="#210307"/><stop offset=".5" stop-color="#620e22"/><stop offset="1" stop-color="#170205"/></linearGradient>
<linearGradient id="stone" x1="0" x2="1"><stop stop-color="#5a3a18"/><stop offset=".5" stop-color="#c28b38"/><stop offset="1" stop-color="#40270e"/></linearGradient>
<radialGradient id="light" cx=".5" cy=".34" r=".5"><stop stop-color="#e7b95d" stop-opacity=".26"/><stop offset="1" stop-color="#e7b95d" stop-opacity="0"/></radialGradient>
<filter id="blur"><feGaussianBlur stdDeviation="13"/></filter>
</defs>
<rect width="1080" height="1920" fill="url(#bg)"/><rect width="1080" height="1300" fill="url(#light)"/>
<!-- curtains -->
<path d="M0 0h290c-20 280-35 520-12 760 15 157-55 308-278 430Z" fill="url(#curtain)"/>
<path d="M1080 0H790c20 280 35 520 12 760-15 157 55 308 278 430Z" fill="url(#curtain)"/>
<g opacity=".28" stroke="#d5aa4c" stroke-width="4"><path d="M80 0c18 340 25 660-30 965"/><path d="M180 0c20 350 22 650-43 994"/><path d="M1000 0c-18 340-25 660 30 965"/><path d="M900 0c-20 350-22 650 43 994"/></g>
<!-- columns -->
<g fill="url(#stone)" opacity=".66">
<rect x="38" y="335" width="118" height="1030"/><rect x="924" y="335" width="118" height="1030"/>
<rect x="18" y="300" width="158" height="70"/><rect x="904" y="300" width="158" height="70"/>
<rect x="8" y="1340" width="178" height="75"/><rect x="894" y="1340" width="178" height="75"/>
</g>
<g fill="none" stroke="#d5aa4c" stroke-width="3" opacity=".34">
<path d="M55 400h84v880H55zM941 400h84v880h-84z"/><path d="M75 420v840M1005 420v840"/>
</g>
<!-- wall arches -->
<g fill="none" stroke="#9b6a27" stroke-width="8" opacity=".27">
<path d="M205 990V580q0-315 335-335 335 20 335 335v410"/>
<path d="M268 990V610q0-245 272-265 272 20 272 265v380"/>
</g>
<!-- chandeliers -->
<g stroke="#d5aa4c" fill="none" opacity=".62">
<path d="M156 0v275M924 0v275" stroke-width="4"/>
<path d="M92 290h128l-18 46H110Z" stroke-width="5"/><path d="M860 290h128l-18 46H878Z" stroke-width="5"/>
<g fill="#ffe7a0" stroke="none"><circle cx="114" cy="350" r="7"/><circle cx="156" cy="360" r="8"/><circle cx="198" cy="350" r="7"/><circle cx="882" cy="350" r="7"/><circle cx="924" cy="360" r="8"/><circle cx="966" cy="350" r="7"/></g>
</g>
<!-- floor -->
<path d="M0 1400 540 1170l540 230v520H0Z" fill="#120104"/>
<g stroke="#a27327" stroke-width="3" opacity=".19"><path d="M540 1170v750M540 1170 150 1920M540 1170 930 1920"/><path d="M0 1555h1080M0 1700h1080M0 1840h1080"/></g>
<!-- warm lights -->
<g fill="#ffd875" opacity=".72" filter="url(#blur)">
<circle cx="116" cy="730" r="24"/><circle cx="964" cy="730" r="24"/><circle cx="210" cy="1040" r="18"/><circle cx="870" cy="1040" r="18"/>
</g>
<g fill="#ffeab0"><circle cx="116" cy="730" r="5"/><circle cx="964" cy="730" r="5"/><circle cx="210" cy="1040" r="4"/><circle cx="870" cy="1040" r="4"/></g>
</svg>